<svg xmlns="http://www.w3.org/2000/svg" width="75" height="75" viewBox="0 0 100 100">
                        <g fill="none" fill-rule="evenodd">
                            <g transform="translate(-140)">
                                <rect width="377" height="230" x="1.5" y="51.5" stroke="#F8971D" stroke-width="3" rx="6"></rect>
                                <circle cx="190" cy="50" r="50" fill="#F8971D"></circle>
                                <path fill="#FFF" fill-rule="nonzero" d="M169.25 68.333c-.366 0-.699-.107-1.034-.211l15.718-18.17 5.887 5.104c.339.298.76.444 1.18.444.419 0 .84-.146 1.178-.444l5.887-5.103 15.718 18.169c-.333.104-.667.21-1.033.21h-43.5zm-3.482-2.95c-.05-.24-.143-.462-.143-.716V35.333c0-.38.109-.723.214-1.067l15.341 13.3-15.412 17.817zm46.983-33.717c.24 0 .451.093.679.14L191 51.253l-22.43-19.447c.228-.047.439-.14.68-.14h43.5zM200.817 47.57l15.346-13.303c.107.344.212.688.212 1.067v29.334c0 .254-.095.48-.146.72l-15.412-17.818zM212.75 28h-43.5c-4.004 0-7.251 3.283-7.251 7.333v29.334c0 4.05 3.247 7.333 7.25 7.333h43.5c4.003 0 7.25-3.283 7.25-7.333V35.333c0-4.05-3.247-7.333-7.25-7.333z"></path>
                            </g>
                        </g>
                    </svg>