<svg xmlns="http://www.w3.org/2000/svg" xmlns:xlink="http://www.w3.org/1999/xlink" preserveAspectRatio="xMidYMid meet" version="1.0" viewBox="501.8 551.7 1012.4 904.2" zoomAndPan="magnify" style="fill: rgb(0, 0, 0);" original_string_length="7123"><g id="__id384_sb9kbipprn" style="fill: rgb(52, 69, 99);"><path d="M 1434.171875 1083.820312 C 1448.320312 1119.261719 1444.941406 1158.898438 1427.460938 1197.628906 C 1388.539062 1215.441406 1354.820312 1205.820312 1353.03125 1205.339844 C 1346.519531 1203.398438 1339.539062 1206.988281 1337.609375 1213.5 C 1335.558594 1220.050781 1339.261719 1226.980469 1345.808594 1229.03125 C 1347.488281 1229.558594 1374.75 1237.351562 1409.878906 1229.460938 C 1391.578125 1257.441406 1366.371094 1284.191406 1335.371094 1307.769531 C 1289.390625 1284.511719 1229.070312 1242.699219 1198.488281 1175.140625 C 1180.660156 1135.828125 1174.980469 1091.539062 1181.570312 1042.890625 C 1183.738281 1026.28125 1187.289062 1009.121094 1192.269531 991.53125 C 1198.921875 990.46875 1205.429688 989.738281 1211.988281 989.121094 C 1282.691406 982.101562 1346.429688 995.730469 1389.058594 1027 C 1409.550781 1041.890625 1425.070312 1061.039062 1434.171875 1083.820312 Z M 1234 1364.929688 C 1219.390625 1370.769531 1204.570312 1375.75 1190.050781 1379.808594 C 1143.238281 1358.480469 1071.609375 1315.050781 1037.421875 1239.460938 C 1012.691406 1184.898438 1011.28125 1120.898438 1033.019531 1048.71875 C 1042.800781 1042.808594 1052.988281 1037.269531 1063.601562 1032.101562 C 1073.859375 1027.070312 1084.488281 1022.289062 1095.421875 1017.929688 C 1100.601562 1015.859375 1105.820312 1013.910156 1111.089844 1012.070312 C 1109.359375 1021.429688 1107.980469 1030.660156 1106.941406 1039.738281 C 1099.910156 1099.648438 1107.929688 1155.140625 1130.820312 1205.761719 C 1161.71875 1274.128906 1214.488281 1321.089844 1263.148438 1352.089844 C 1253.761719 1356.640625 1244.011719 1360.929688 1234 1364.929688 Z M 973.316406 1374.578125 C 948.867188 1363.800781 928.539062 1348.980469 913.597656 1330.261719 C 899.78125 1308.699219 889.121094 1280.671875 887.039062 1263.761719 C 883.0625 1217.058594 904.210938 1166.460938 944.082031 1121.320312 C 940.4375 1174.671875 948.945312 1224.371094 969.625 1270.140625 C 994.257812 1324.46875 1032.539062 1365.210938 1071.71875 1395.179688 C 1035.171875 1394.171875 1001.558594 1387.179688 973.316406 1374.578125 Z M 741.039062 992.03125 C 678.382812 968.761719 622.113281 929.058594 579.304688 875.988281 C 634.609375 836.429688 699.453125 813.070312 768.21875 807.890625 C 774.039062 807.429688 779.839844 807.25 785.636719 807.070312 C 787.199219 806.980469 788.695312 807.050781 790.261719 806.960938 C 795.160156 806.871094 800.105469 806.890625 805.097656 807.03125 C 806.59375 807.101562 807.929688 807.101562 809.425781 807.171875 C 814.414062 807.308594 819.339844 807.621094 824.308594 808.03125 C 825.804688 808.101562 827.34375 808.289062 828.886719 808.46875 C 833.140625 808.769531 837.375 809.351562 841.5625 809.808594 C 844.253906 810.210938 847.011719 810.441406 849.703125 810.828125 C 891.226562 816.929688 931.339844 829.859375 968.367188 849.089844 C 1013.769531 872.578125 1054.488281 905.410156 1087.339844 945.910156 C 1076.640625 953.519531 1065.550781 960.488281 1054.269531 966.988281 C 1048.5 970.230469 1042.671875 973.359375 1036.648438 976.300781 C 1034.898438 977.261719 1032.988281 978.160156 1031.191406 979.011719 C 1024.011719 982.410156 1016.671875 985.738281 1009.191406 988.730469 C 1001.601562 991.761719 993.753906 994.5 985.8125 997 C 983.699219 997.710938 981.464844 998.46875 979.304688 999.070312 C 953.234375 1006.941406 926.222656 1012.128906 898.359375 1014.179688 C 844.203125 1018.199219 790.652344 1010.371094 741.039062 992.03125 Z M 791.910156 617.671875 C 859.84375 619.75 925.558594 640.328125 983.441406 678.050781 C 1069.539062 733.980469 1127.789062 823.039062 1146.851562 921.878906 C 1069.328125 817.300781 948.707031 752.75 820.039062 745.570312 C 819.488281 745.519531 818.980469 745.589844 818.429688 745.550781 C 802.464844 705.230469 793.195312 661.980469 791.910156 617.671875 Z M 1479.390625 898.078125 C 1478.078125 897.128906 1476.578125 896.398438 1474.898438 895.871094 C 1447.671875 887.128906 1391.328125 888.019531 1349.839844 941.808594 C 1353.449219 899.410156 1371.78125 874.480469 1389.480469 860.339844 C 1398.421875 876.378906 1417.921875 883.800781 1435.410156 876.820312 C 1454.390625 869.238281 1463.660156 847.660156 1456.070312 828.679688 C 1448.449219 809.578125 1426.921875 800.441406 1407.941406 808.019531 C 1406.441406 808.609375 1405.039062 809.441406 1403.628906 810.269531 C 1376.691406 820.628906 1317.179688 854 1312.289062 944.660156 C 1281.078125 938.828125 1247.441406 936.96875 1212.378906 939.820312 C 1196.898438 812.820312 1126 696.800781 1017.21875 626.011719 C 940.132812 575.949219 851.207031 551.699219 759.828125 556.039062 C 743.816406 556.699219 731.179688 569.480469 730.339844 585.421875 C 727.503906 641.121094 735.640625 695.898438 753.117188 747.351562 C 665.4375 755.949219 583.75 789.910156 516.402344 846.410156 C 504.203125 856.621094 501.753906 874.539062 510.878906 887.710938 C 598.414062 1015.371094 748.761719 1087.53125 903.019531 1075.949219 C 909.292969 1075.519531 915.46875 1074.761719 921.671875 1073.96875 C 865.28125 1131.460938 834.101562 1199.820312 837.644531 1264.011719 C 836.496094 1264.46875 835.367188 1264.648438 834.21875 1265.109375 C 800.046875 1278.761719 781.4375 1312.339844 792.511719 1340.058594 C 803.585938 1367.789062 840.203125 1379.320312 874.375 1365.671875 C 875.523438 1365.210938 876.46875 1364.570312 877.574219 1363.988281 C 931.667969 1427.628906 1033.148438 1455.941406 1144.121094 1440.179688 C 1179.691406 1435.039062 1216.128906 1425.421875 1252.378906 1410.949219 L 1254.558594 1410.078125 C 1275.921875 1401.421875 1296.101562 1391.488281 1315.078125 1380.570312 C 1341.320312 1365.429688 1365.230469 1348.140625 1386.308594 1329.449219 C 1473.730469 1252.378906 1514.140625 1150.46875 1480.191406 1065.441406 C 1462.269531 1020.570312 1426.148438 986.570312 1378.898438 965.148438 C 1397.488281 940.519531 1418.449219 931.890625 1434.988281 929.550781 C 1437.328125 942.089844 1447.261719 952.261719 1460.511719 954.039062 C 1477.011719 956.261719 1492.148438 944.738281 1494.371094 928.25 C 1496.03125 915.710938 1489.738281 903.949219 1479.390625 898.078125" style="fill: inherit;"/><path d="M 1332.921875 1065.480469 C 1340.710938 1084.988281 1331.199219 1107.140625 1311.671875 1114.941406 C 1292.140625 1122.738281 1270 1113.230469 1262.210938 1093.71875 C 1254.410156 1074.191406 1263.910156 1052.039062 1283.441406 1044.238281 C 1286.589844 1042.988281 1289.800781 1042.179688 1292.988281 1041.820312 C 1284.898438 1046.53125 1281.28125 1056.578125 1284.859375 1065.539062 C 1288.789062 1075.398438 1299.980469 1080.21875 1309.851562 1076.269531 C 1319.710938 1072.339844 1324.5 1061.140625 1320.570312 1051.28125 C 1320.121094 1050.160156 1319.589844 1049.109375 1318.960938 1048.128906 C 1325.019531 1052.230469 1329.988281 1058.148438 1332.921875 1065.480469" style="fill: inherit;"/></g></svg>