<svg xmlns="http://www.w3.org/2000/svg" xmlns:xlink="http://www.w3.org/1999/xlink" data-name="Circular Glyph" preserveAspectRatio="xMidYMid meet" version="1.0" viewBox="0.0 0.0 64.0 64.0" zoomAndPan="magnify" style="fill: rgb(133, 143, 161);" original_string_length="696"><g id="__id359_sbu00d6ocf"><path d="M32,0A32,32,0,1,0,64,32,32.004,32.004,0,0,0,32,0ZM42.34,23.57a10.34,10.34,0,0,1-20.68006,0C22.23,9.86,41.77,9.86,42.34,23.57Zm8.99,23.41a6.55209,6.55209,0,0,1-5.94,3.73H18.61a6.61044,6.61044,0,0,1-5.16-10.73,21.68114,21.68114,0,0,1,10.49-6.95,12.28023,12.28023,0,0,0,8.05,2.99h.04a12.2671,12.2671,0,0,0,8.03-2.99,21.68114,21.68114,0,0,1,10.49,6.95A6.55588,6.55588,0,0,1,51.33,46.98Z" style="fill: inherit;"/></g></svg>